<svg width="24" height="24" viewBox="0 0 24 24" fill="none" xmlns="http://www.w3.org/2000/svg">
<path fill-rule="evenodd" clip-rule="evenodd" d="M12.6032 4.39702L12.6874 4.46963L19.8828 11.6639C20.0386 11.8197 20.0391 12.0722 19.8839 12.2286L12.6382 19.5284C12.3464 19.8223 11.8716 19.8241 11.5776 19.5323C11.3103 19.267 11.2846 18.8505 11.5013 18.556L11.5736 18.4716L17.0818 12.9204C17.1207 12.8812 17.1205 12.8179 17.0813 12.779C17.0625 12.7604 17.0372 12.75 17.0108 12.75L4.75 12.75C4.33579 12.75 4 12.4142 4 12C4 11.5858 4.33579 11.25 4.75 11.25L17.1055 11.25C17.1607 11.25 17.2055 11.2052 17.2055 11.15C17.2055 11.1235 17.195 11.098 17.1762 11.0793L11.6268 5.53037C11.3605 5.26413 11.3363 4.84747 11.5541 4.55384L11.6267 4.46971C11.8929 4.20343 12.3096 4.17918 12.6032 4.39702Z" fill="#E21B70"/>
</svg>
