<svg width="24" height="24" viewBox="0 0 24 24" fill="none" xmlns="http://www.w3.org/2000/svg">
<path fill-rule="evenodd" clip-rule="evenodd" d="M11.3968 4.39702L11.3126 4.46963L4.11718 11.6639C3.96136 11.8197 3.96088 12.0722 4.11611 12.2286L11.3618 19.5284C11.6536 19.8223 12.1284 19.8241 12.4224 19.5323C12.6897 19.267 12.7154 18.8505 12.4987 18.556L12.4264 18.4716L6.91819 12.9204C6.87929 12.8812 6.87954 12.8179 6.91874 12.779C6.93747 12.7604 6.96279 12.75 6.98918 12.75L19.25 12.75C19.6642 12.75 20 12.4142 20 12C20 11.5858 19.6642 11.25 19.25 11.25L6.89451 11.25C6.83928 11.25 6.79451 11.2052 6.79451 11.15C6.79451 11.1235 6.80505 11.098 6.8238 11.0793L12.3732 5.53037C12.6395 5.26413 12.6637 4.84747 12.4459 4.55384L12.3733 4.46971C12.1071 4.20343 11.6904 4.17918 11.3968 4.39702Z" fill="#E21B70"/>
</svg>
