<svg width="20" height="16" viewBox="0 0 20 16" fill="none" xmlns="http://www.w3.org/2000/svg">
<path fill-rule="evenodd" clip-rule="evenodd" d="M15.9384 0.438338C18.7016 1.75361 19.9527 5.19469 18.7327 8.12421C17.1851 11.3674 14.297 13.9595 10.0683 15.9005C9.81413 16.0143 9.52502 16.0305 9.26089 15.9491L9.13065 15.9C4.90256 13.9591 2.01479 11.3671 0.467349 8.12421C-0.752694 5.19469 0.498354 1.75361 3.26164 0.438338C5.15196 -0.461414 7.08845 0.123192 8.64023 1.29285C8.75184 1.37698 8.88609 1.48788 9.043 1.62554L9.32929 1.88324C9.48226 2.02397 9.71753 2.02407 9.87063 1.88348L10.1865 1.60038C10.331 1.47451 10.4556 1.37218 10.5603 1.29338C12.1155 0.122013 14.0499 -0.460505 15.9384 0.438338ZM15.2937 1.79274C14.1158 1.23207 12.7884 1.49301 11.4627 2.49154L11.3118 2.61193C11.1969 2.70757 11.0536 2.83367 10.8852 2.98833C10.6777 3.17884 10.3315 3.45514 9.84662 3.81724C9.70173 3.92544 9.50231 3.92304 9.36012 3.81131C8.9453 3.48537 8.64234 3.24931 8.45126 3.10313L8.3202 2.99308L8.16281 2.84994C7.98181 2.68743 7.83781 2.56641 7.73735 2.49069C6.41396 1.49318 5.08497 1.23172 3.90631 1.79274C1.8754 2.75941 0.935105 5.34576 1.82112 7.47822C3.15605 10.2758 5.64259 12.5647 9.34057 14.3415L9.6 14.463L9.85853 14.3419C13.42 12.631 15.8569 10.4472 17.1981 7.84913L17.3479 7.54753C18.2362 5.41456 17.3816 2.92068 15.4809 1.88805L15.2937 1.79274Z" fill="white"/>
</svg>
