<svg width="24" height="24" viewBox="0 0 24 24" fill="none" xmlns="http://www.w3.org/2000/svg">
<path fill-rule="evenodd" clip-rule="evenodd" d="M12.3224 2C16.9186 2 20.6446 5.72596 20.6446 10.3222C20.6446 11.8203 20.2487 13.226 19.5559 14.4404L18.4715 15.8911C17.8726 16.5162 16.6838 17.706 14.9052 19.4602L13.0213 21.313C12.6322 21.6947 12.0092 21.6946 11.6203 21.3128L7.91833 17.6571L6.59648 16.3282C6.2846 16.0104 5.78156 15.3801 5.08734 14.4375C4.3955 13.2238 4.00024 11.8192 4.00024 10.3222C4.00024 5.72596 7.72621 2 12.3224 2ZM12.3224 3.5C8.55463 3.5 5.50024 6.55439 5.50024 10.3222C5.50024 11.4141 5.75604 12.466 6.23886 13.4136L6.37241 13.66L6.96356 14.5436L7.18196 14.7804L7.77128 15.385C8.23371 15.8535 8.88147 16.5011 9.70239 17.3151C10.6866 18.2861 11.4247 19.0143 11.9168 19.4998C11.9577 19.5401 11.9986 19.5805 12.0395 19.6209C12.1953 19.7745 12.4456 19.7745 12.6013 19.6209L12.6754 19.5478L15.3017 16.9571L17.2047 15.0461C17.3404 14.9068 17.4503 14.7925 17.5337 14.7039L17.6874 14.534L18.2724 13.659L18.4049 13.4158C18.84 12.5624 19.0911 11.6245 19.1369 10.6487L19.1446 10.3222C19.1446 6.55439 16.0902 3.5 12.3224 3.5ZM12.3224 6.75C14.3935 6.75 16.0724 8.42893 16.0724 10.5C16.0724 12.5711 14.3935 14.25 12.3224 14.25C10.2513 14.25 8.57241 12.5711 8.57241 10.5C8.57241 8.42893 10.2513 6.75 12.3224 6.75ZM12.3224 8.25C11.0798 8.25 10.0724 9.25736 10.0724 10.5C10.0724 11.7426 11.0798 12.75 12.3224 12.75C13.5651 12.75 14.5724 11.7426 14.5724 10.5C14.5724 9.25736 13.5651 8.25 12.3224 8.25Z" fill="#E21B70"/>
</svg>
