<svg width="166" height="32" viewBox="0 0 166 32" fill="none" xmlns="http://www.w3.org/2000/svg">
<g clip-path="url(#clip0_1864_2469)">
<path fill-rule="evenodd" clip-rule="evenodd" d="M30.3914 10.1184C30.3958 10.1289 30.3997 10.1398 30.4028 10.1509L30.4077 10.1492C31.4474 12.2773 31.9919 14.6132 32 16.9818C32 25.483 24.8376 31.6705 16 31.6705C7.16244 31.6705 0 25.483 0 16.9818C0.00748698 14.6023 0.556478 12.2558 1.60531 10.12C1.68083 9.96485 1.70898 9.791 1.68636 9.62C1.6639 9.449 1.59163 9.28838 1.47868 9.15807C-0.27946 7.09451 -0.147786 3.5913 2.23421 1.58135C4.40983 -0.254732 7.73926 0.104358 9.39665 1.56672C9.59635 1.71965 9.83154 1.81987 10.0802 1.8582C10.3289 1.89653 10.5833 1.87173 10.82 1.78608C10.8244 1.78492 10.8286 1.78356 10.8328 1.78211L10.8444 1.77794C10.8524 1.77501 10.8604 1.7721 10.8683 1.76997C10.876 1.76793 10.8836 1.76659 10.8914 1.76659C13.2666 0.924712 15.8132 0.683562 18.304 1.06464C19.2402 1.21453 20.161 1.44894 21.055 1.76496L21.1232 1.78608C21.3716 1.86469 21.6348 1.88461 21.8923 1.84429C22.1496 1.80398 22.3942 1.70452 22.6066 1.55372C23.4889 0.773792 24.7174 0.396818 25.8711 0.339954C27.1948 0.261483 28.5044 0.648955 29.5724 1.43511L29.6683 1.51148C29.7712 1.59203 29.8711 1.67616 29.9679 1.7637C29.9886 1.78234 30.0091 1.80114 30.0295 1.8201C30.0601 1.8485 30.0903 1.87723 30.1201 1.90632C30.263 2.04607 30.237 2.30929 30.1867 2.58715C30.1769 2.65864 30.1623 2.73176 30.146 2.80162C30.0957 3.06485 30.0599 3.31833 30.1558 3.47269C30.2632 3.64676 30.5405 3.69597 30.814 3.74447C31.1071 3.79648 31.3957 3.84769 31.4655 4.05114C31.7331 4.84343 31.8102 5.68759 31.6908 6.51529C31.5715 7.34297 31.2588 8.13089 30.7782 8.81524C30.6969 8.93222 30.6091 9.04595 30.5164 9.15481C30.4035 9.28545 30.3312 9.44646 30.3091 9.61779C30.2868 9.78911 30.3154 9.9632 30.3914 10.1184ZM18.1854 16.9704C18.1854 16.4797 17.1569 16.2051 15.8879 16.2051C14.6188 16.2051 13.5903 16.4797 13.5903 16.9704C13.5903 17.4611 14.6188 18.5676 15.8879 18.5676C17.1569 18.5676 18.1854 17.4611 18.1854 16.9704ZM2.85645 7.036C2.9069 7.1186 2.97314 7.1904 3.05143 7.24724L3.03841 7.24561C3.31966 7.43735 3.51139 7.24887 3.68848 7.04414C4.79167 5.77837 5.98275 4.5516 7.44515 3.69367C7.47982 3.67683 7.51335 3.65774 7.54541 3.63654C7.59212 3.60572 7.63574 3.57044 7.67578 3.53118C7.70931 3.49696 7.73389 3.45511 7.7474 3.40923C7.76107 3.36335 7.76318 3.31487 7.75391 3.26795C7.73389 3.2057 7.69808 3.14969 7.6499 3.10548C7.58464 3.03962 7.51432 2.97903 7.43994 2.9242C7.38086 2.88073 7.31917 2.84085 7.25505 2.80488C6.90234 2.61062 6.5166 2.48388 6.11768 2.43116C4.5918 2.22966 2.99463 3.11034 2.54297 4.61984C2.43018 5.00155 2.39421 5.4018 2.43685 5.79751C2.47949 6.19323 2.6001 6.57659 2.7915 6.92553C2.79915 6.94017 2.80729 6.95482 2.81576 6.96937C2.82878 6.99193 2.84261 7.01427 2.85645 7.036ZM4.03939 16.3741C4.47494 17.7828 5.62533 19.1835 6.95117 19.333L6.94954 19.3378C8.27539 19.4873 8.9043 18.8829 9.35596 17.3149C9.80762 15.7469 11.5853 13.8279 12.3701 12.9846C13.1549 12.1413 13.137 10.5164 11.8127 9.54153C11.1888 9.08332 10.3975 8.97445 9.73617 8.97445C9.29053 8.97718 8.84668 9.03171 8.41357 9.13695C7.07796 9.5383 6.12077 10.1395 5.43848 10.8268C3.38949 12.8953 3.84766 15.7534 4.03939 16.3741ZM15.8716 24.0564H15.9106L15.909 24.0548C18.46 24.0402 20.522 22.2382 20.522 20.4281C20.522 19.8025 20.2474 19.4873 19.5682 19.6498L19.5366 19.6576L19.5362 19.6577C19.0869 19.7689 17.5184 20.157 16.0796 20.1649H15.701C14.2272 20.1567 12.6073 19.7489 12.214 19.6498C11.5332 19.4808 11.2603 19.8025 11.2603 20.4281C11.2603 22.2382 13.3223 24.0402 15.8716 24.0564ZM24.8327 19.3167C26.1571 19.1656 27.3091 17.765 27.7428 16.3578L27.7396 16.3448C27.9313 15.7241 28.3911 12.8676 26.3407 10.7976C25.6598 10.1102 24.7012 9.51067 23.3656 9.10769C22.9325 9.00231 22.4886 8.94778 22.0428 8.94522C21.3815 8.94034 20.5902 9.05409 19.9663 9.51067C18.6421 10.4807 18.6242 12.1186 19.409 12.9554C20.1938 13.7922 21.9697 15.7225 22.4263 17.2938C22.883 18.865 23.5085 19.4678 24.8327 19.3167ZM29.2052 6.93372L29.2052 6.93364L29.2004 6.93527C29.3911 6.58578 29.5112 6.20212 29.5535 5.8062C29.596 5.41029 29.5599 5.00992 29.4473 4.62796C28.994 3.12009 27.3968 2.23941 25.8727 2.44091C25.4707 2.49207 25.082 2.61886 24.7271 2.81462C24.5822 2.89533 24.4499 2.99657 24.334 3.11522C24.2855 3.15953 24.2492 3.21546 24.2284 3.2777C24.2197 3.32476 24.2223 3.37318 24.2362 3.41895C24.2502 3.46473 24.2746 3.50656 24.3079 3.54092C24.3755 3.60723 24.4535 3.66212 24.5386 3.70342C25.9977 4.56135 27.1921 5.78649 28.2952 7.05388C28.479 7.25536 28.6707 7.44546 28.9453 7.25536C29.0228 7.19762 29.0889 7.12599 29.1403 7.04414C29.1629 7.00844 29.184 6.97111 29.2052 6.93378L29.2052 6.93376L29.2052 6.93372ZM10.2155 13.36C10.3695 13.3461 10.5163 13.2878 10.6377 13.192C10.7593 13.0963 10.8503 12.9673 10.8997 12.8208C10.9494 12.6743 10.9552 12.5165 10.9167 12.3667C10.8781 12.2169 10.7969 12.0815 10.6828 11.977C10.5688 11.8726 10.4268 11.8035 10.2743 11.7783C10.1216 11.753 9.96501 11.7727 9.82324 11.8348C9.68164 11.897 9.5612 11.999 9.4764 12.1284C9.39176 12.2579 9.34652 12.4091 9.34619 12.5638C9.35628 12.7845 9.45345 12.9922 9.61637 13.1414C9.7793 13.2906 9.99479 13.3692 10.2155 13.36ZM21.3551 11.9366C21.4769 11.8409 21.6239 11.7828 21.778 11.7692C21.9984 11.76 22.2134 11.8384 22.376 11.9873C22.5386 12.1362 22.6356 12.3435 22.6457 12.5638C22.6458 12.7186 22.6007 12.8701 22.5163 12.9998C22.4316 13.1295 22.3112 13.2317 22.1694 13.2941C22.0278 13.3565 21.8709 13.3763 21.7183 13.3512C21.5654 13.326 21.4233 13.2569 21.3091 13.1524C21.195 13.0478 21.1136 12.9123 21.0752 12.7623C21.0366 12.6124 21.0426 12.4544 21.0924 12.3078C21.1421 12.1612 21.2334 12.0322 21.3551 11.9366ZM46.5918 5.48572C43.7264 5.48572 42.2875 7.24163 42.2875 9.8755V12.0453H40V14.6792H42.2998V25.8041H45.1652V14.6792H48.0307V12.0453H45.1652V9.58703C45.1652 8.70907 45.5957 8.11959 46.4566 8.11959L48.0307 8.40806V5.77419L46.5918 5.48572ZM62.5057 18.931C62.5057 14.6792 59.1975 11.7568 55.4711 11.7568C51.7325 11.7568 48.4366 14.6792 48.4366 18.931C48.4366 23.1828 51.7448 26.1052 55.4711 26.1052C55.9385 26.1052 56.3989 26.0593 56.8468 25.9708C59.9823 25.3511 62.5057 22.6404 62.5057 18.931ZM59.6279 18.9184C59.6279 21.4144 58.2013 23.4587 55.4711 23.4587C52.7409 23.4587 51.302 21.4144 51.3143 18.9184C51.3143 16.4225 52.7409 14.3782 55.4711 14.3782C55.641 14.3782 55.8059 14.3862 55.9657 14.4019C58.3633 14.6369 59.6279 16.5903 59.6279 18.9184ZM70.7947 11.7568C74.521 11.7568 77.8293 14.6792 77.8293 18.931C77.8293 23.1703 74.5333 26.1052 70.7947 26.1052C67.0683 26.1052 63.7601 23.1828 63.7601 18.931C63.7601 14.6792 67.056 11.7568 70.7947 11.7568ZM70.7947 23.4587C73.5249 23.4587 74.9515 21.4144 74.9515 18.9184C74.9515 16.4351 73.5126 14.3782 70.7947 14.3782C68.0645 14.3782 66.6378 16.4225 66.6378 18.9184C66.6256 21.4144 68.0645 23.4587 70.7947 23.4587ZM89.9922 24.6377L90.275 25.8041H92.8577V5.49826H89.9922V13.2243L89.8446 13.3748L89.697 13.2243C88.8361 12.3463 87.3727 11.7568 85.9707 11.7568C82.2443 11.7568 79.0837 14.6917 79.0837 18.931C79.0837 23.1828 82.2443 26.1052 85.9707 26.1052C86.0598 26.1052 86.149 26.1029 86.2381 26.0983C87.5749 26.0303 88.89 25.4608 89.697 24.6377L89.8446 24.4872L89.9922 24.6377ZM81.9246 18.931C81.9246 16.4351 83.388 14.3907 86.1182 14.3907C86.4226 14.3907 86.7159 14.4227 86.996 14.4834C88.9568 14.9089 90.275 16.7471 90.275 18.931C90.275 21.4269 88.5533 23.4713 86.1182 23.4713C83.388 23.4713 81.9246 21.4144 81.9246 18.931ZM98.3181 12.0453L98.5763 13.2117L98.7485 13.3622L98.8961 13.2117C99.7569 12.3338 101.196 11.7443 102.622 11.7443C106.349 11.7443 109.509 14.6666 109.509 18.9184C109.509 23.1577 106.349 26.0926 102.622 26.0926C101.22 26.0926 99.7569 25.5031 98.8961 24.6252L98.7485 24.4747L98.5763 24.6252V32H95.7354V12.0453H98.3181ZM102.475 23.4587C105.205 23.4587 106.632 21.4144 106.632 18.9184C106.632 16.4351 105.193 14.3782 102.475 14.3782C100.04 14.3782 98.3181 16.4225 98.3181 18.9184C98.3181 21.4144 100.04 23.4587 102.475 23.4587ZM116.446 14.2402C117.983 14.2402 119.09 15.0053 119.09 16.6608V17.2629H116.741C113.199 17.2629 110.85 18.9686 110.85 21.8157C110.85 24.575 112.633 26.0299 115.031 26.0299C116.901 26.0299 118.303 25.3401 119.25 23.9855L119.52 25.8041H121.894V17.1876C121.894 13.5253 120.086 11.7067 116.47 11.7067C116.308 11.7067 116.148 11.7124 115.991 11.7239C113.635 11.895 111.872 13.3332 111.342 15.5321L113.912 16.0839C114.367 14.8422 115.203 14.2402 116.446 14.2402ZM118.007 22.5808C117.306 23.1828 116.47 23.4838 115.523 23.4838C115.454 23.4838 115.387 23.4811 115.322 23.4758C114.343 23.3964 113.815 22.7321 113.826 21.8032C113.826 20.4862 114.896 19.6584 116.63 19.6584H119.09V19.9595C119.09 21.0883 118.733 21.9411 118.007 22.5808ZM127.12 12.0453L127.403 13.2117L127.551 13.3622L127.698 13.2117C128.204 12.4435 129.36 11.8962 130.415 11.7713C130.566 11.7535 130.715 11.7443 130.859 11.7443C134.303 11.7443 136.307 14.0897 136.307 17.3005V25.7916H133.442V17.3005C133.356 15.4317 132.47 14.3782 130.576 14.3782C128.879 14.3782 127.477 15.7829 127.416 17.4761V25.7916H124.55L124.55 12.0453H127.12ZM149.06 24.6377L149.343 25.8041H151.926V5.49826H149.06V13.2243L148.913 13.3748L148.765 13.2243C148.658 13.1145 148.541 13.0093 148.415 12.9092C147.54 12.2082 146.266 11.7568 145.039 11.7568C144.573 11.7568 144.116 11.8027 143.673 11.8912C140.572 12.5109 138.152 15.2216 138.152 18.931C138.152 23.1828 141.313 26.1052 145.039 26.1052C146.465 26.1052 147.904 25.5157 148.765 24.6378L148.913 24.4872L149.06 24.6377ZM140.993 18.931C140.993 16.4351 142.456 14.3907 145.186 14.3907C147.622 14.3907 149.343 16.4351 149.343 18.931C149.343 21.4269 147.622 23.4713 145.186 23.4713C145.016 23.4713 144.85 23.4632 144.689 23.4476C142.279 23.2125 140.993 21.2591 140.993 18.931ZM162.441 16.6608C162.441 15.0053 161.334 14.2402 159.797 14.2402C158.555 14.2402 157.718 14.8422 157.263 16.0839L154.693 15.5321C155.259 13.1866 157.226 11.7067 159.821 11.7067C163.437 11.7067 165.245 13.5253 165.245 17.1876V25.8041H162.871L162.601 23.9855C161.654 25.3401 160.252 26.0299 158.382 26.0299C155.984 26.0299 154.201 24.575 154.201 21.8157C154.201 18.9686 156.55 17.2629 160.092 17.2629H162.441V16.6608ZM158.874 23.4838C159.821 23.4838 160.658 23.1828 161.359 22.5808C162.084 21.9411 162.441 21.0883 162.441 19.9595V19.6584H159.981C158.247 19.6584 157.177 20.4862 157.177 21.8032C157.177 22.794 157.768 23.4838 158.874 23.4838Z" fill="white"/>
</g>
<defs>
<clipPath id="clip0_1864_2469">
<rect width="166" height="32" fill="white"/>
</clipPath>
</defs>
</svg>
