<svg width="24" height="24" viewBox="0 0 24 24" fill="none" xmlns="http://www.w3.org/2000/svg">
<path d="M14.8475 6.93018H9.0708V16.5265H14.8475V6.93018Z" fill="#FF5F00"/>
<path d="M9.66578 11.7292C9.66433 9.85689 10.5094 8.08789 11.9575 6.9319C9.49742 4.96553 5.96471 5.25195 3.84202 7.58987C1.71933 9.92779 1.71933 13.5323 3.84202 15.8702C5.96471 18.2081 9.49742 18.4946 11.9575 16.5282C10.5089 15.3718 9.66382 13.6021 9.66578 11.7292Z" fill="#EB001B"/>
<path d="M21.6658 11.7292C21.6658 14.0657 20.354 16.197 18.2878 17.2181C16.2215 18.2391 13.7634 17.9705 11.9575 16.5265C13.4049 15.3695 14.25 13.6007 14.25 11.7283C14.25 9.85592 13.4049 8.08715 11.9575 6.93018C13.7634 5.48609 16.2215 5.21754 18.2878 6.23857C20.354 7.25961 21.6658 9.39097 21.6658 11.7275V11.7292Z" fill="#F79E1B"/>
</svg>
