<svg width="24" height="24" viewBox="0 0 24 24" fill="none" xmlns="http://www.w3.org/2000/svg">
<path fill-rule="evenodd" clip-rule="evenodd" d="M1.263 3H22.7362C23.4345 3 24 3.672 24 4.5V19.5C24 20.328 23.4345 21 22.7362 21H1.263C0.5655 21 0 20.328 0 19.5V4.5C0 3.672 0.5655 3 1.263 3Z" fill="black"/>
<path fill-rule="evenodd" clip-rule="evenodd" d="M11.2081 5.60562C12.2514 5.60039 13.6246 6.35489 13.6186 8.23814C13.6149 9.87689 12.4929 10.8856 11.4571 10.8856L8.82538 10.8864L8.82838 10.8279C8.97613 10.8001 9.14263 10.7026 9.17038 10.5991C9.25738 10.2039 9.23788 6.59189 9.18463 5.99714C9.16813 5.81114 9.02938 5.69114 8.85988 5.66189L8.85463 5.60562C8.85463 5.60562 10.9741 5.60639 11.2081 5.60562Z" fill="white"/>
<path fill-rule="evenodd" clip-rule="evenodd" d="M11.6858 10.5451C12.153 10.3688 12.7313 9.52807 12.6353 8.20432C12.543 6.92407 12.0795 5.91832 10.8473 5.82382C10.8473 5.82382 10.614 5.80657 10.4183 5.80507C10.2083 5.80357 10.1633 5.79607 10.1475 6.03232C10.1213 6.47482 10.113 9.91807 10.14 10.4153C10.143 10.4828 10.1505 10.6463 10.4198 10.6756C10.911 10.7258 11.3183 10.6853 11.6858 10.5451Z" fill="black"/>
<path fill-rule="evenodd" clip-rule="evenodd" d="M16.6559 8.06583C17.8829 8.38608 17.9564 9.32058 17.9399 9.58308C17.8837 10.7523 16.9432 10.8866 16.5644 10.8866H13.6694L13.6724 10.8273C13.8832 10.7966 14.0414 10.6751 14.0414 10.2858L14.0579 6.25833C14.0624 5.82183 13.9537 5.68833 13.7249 5.65983L13.7197 5.60508H15.9082C16.3102 5.60508 17.5199 5.52108 17.6234 6.69408C17.7052 7.63233 16.7272 8.02458 16.6559 8.06583Z" fill="white"/>
<path fill-rule="evenodd" clip-rule="evenodd" d="M16.979 9.59142C16.9992 8.45667 16.211 8.15517 15.3935 8.10867C15.3762 8.10717 15.383 8.06442 15.3957 8.06217C15.6612 8.05092 16.7165 7.92192 16.6737 6.85917C16.631 5.82342 15.8855 5.80017 15.6132 5.79567C15.3905 5.79267 15.3417 5.79267 15.248 5.79717C15.0897 5.80467 15.0507 5.81667 15.0515 5.99817C15.0515 6.02142 15.017 7.86417 14.996 9.16017C14.9862 9.86442 14.9832 10.4067 14.9832 10.4067C14.9877 10.5357 14.972 10.6669 15.2742 10.6819C15.5855 10.6977 15.986 10.7112 16.2672 10.6482C16.5245 10.5904 16.9617 10.3917 16.979 9.59142Z" fill="black"/>
<path fill-rule="evenodd" clip-rule="evenodd" d="M21.3757 5.62139L21.4252 5.62064L21.4424 6.56189L21.3877 6.56114C21.2992 6.17864 20.9504 5.81714 20.2499 5.77889C19.4227 5.73314 19.0657 6.25289 19.0597 6.74489C19.0552 7.39889 19.5389 7.53389 20.2559 7.71764C20.5927 7.80539 21.8444 7.97714 21.7439 9.45914C21.6742 10.4949 20.8267 10.9869 19.6267 10.9479C19.6267 10.9479 19.1279 10.9306 18.4312 10.7266C18.3022 10.6876 18.2677 10.7341 18.2159 10.8339L18.1589 10.8369L18.1612 9.82289L18.2159 9.82514C18.2437 9.92789 18.2512 10.1199 18.4274 10.2819C18.5564 10.4019 18.8594 10.6966 19.5224 10.7041C20.1734 10.7139 20.7134 10.4236 20.7854 9.65339C20.8049 9.44639 20.7847 8.97239 20.3452 8.75639C20.0024 8.58689 19.0484 8.47589 18.5864 8.04839C18.5864 8.04839 18.0382 7.64564 18.1244 6.89414C18.2459 5.83214 19.0867 5.56589 19.8427 5.5501C19.8427 5.5501 20.5177 5.54339 21.0562 5.68964C21.0562 5.68964 21.1882 5.72714 21.2977 5.68364C21.3419 5.66789 21.3622 5.63864 21.3757 5.62139Z" fill="white"/>
<path fill-rule="evenodd" clip-rule="evenodd" d="M5.08478 10.8011C5.45828 10.8011 5.78978 10.8168 6.37703 11.1093C6.54653 11.1941 6.79553 11.3808 7.08503 11.1041C7.29653 10.8828 7.26128 10.6286 7.16828 10.4568C7.33028 10.5543 7.57028 10.5926 7.78178 10.3691C8.04203 10.0623 7.86578 9.79757 7.78553 9.61832C7.50953 8.99807 7.49453 8.64482 7.49453 8.24957V8.24882C7.49453 7.85507 7.50953 7.50257 7.78553 6.88157C7.86578 6.70157 8.04203 6.43907 7.78178 6.13157C7.57028 5.90882 7.33028 5.94557 7.16903 6.04382C7.26203 5.87282 7.29653 5.61782 7.08503 5.39432C6.79553 5.11982 6.54653 5.30582 6.37703 5.39132C5.78978 5.68382 5.45828 5.70032 5.08478 5.70032V10.8011Z" fill="#FF3333"/>
<path fill-rule="evenodd" clip-rule="evenodd" d="M5.08477 5.70011C4.70977 5.70011 4.37752 5.68361 3.79252 5.39111C3.62152 5.30636 3.37177 5.11961 3.08302 5.39411C2.87152 5.61836 2.90752 5.87261 3.00052 6.04361C2.83777 5.94536 2.59777 5.90861 2.38627 6.13211C2.12677 6.43886 2.30377 6.70136 2.38177 6.88211C2.66002 7.50236 2.67502 7.85561 2.67502 8.24936C2.67502 8.64461 2.66002 8.99861 2.38177 9.61886C2.30377 9.79736 2.12677 10.0621 2.38627 10.3689C2.59777 10.5909 2.83777 10.5541 3.00052 10.4566C2.90752 10.6284 2.87152 10.8826 3.08302 11.1046C3.37177 11.3806 3.62152 11.1939 3.79252 11.1091C4.37827 10.8166 4.70977 10.8009 5.08477 10.8009V5.70011Z" fill="#FF3333"/>
<path fill-rule="evenodd" clip-rule="evenodd" d="M5.08441 7.78976C5.29066 7.78976 5.47516 7.59926 5.47516 7.59926L6.83566 6.39026L6.84166 6.39626L5.69791 7.83626C5.69791 7.83626 5.52016 8.03051 5.52016 8.25026C5.52016 8.47151 5.69791 8.66576 5.69791 8.66576L6.84166 10.105L6.83566 10.1103L5.47516 8.90201C5.47516 8.90201 5.29066 8.71151 5.08441 8.71151V7.78976Z" fill="white"/>
<path fill-rule="evenodd" clip-rule="evenodd" d="M5.0844 8.71177C4.8759 8.71177 4.6914 8.90227 4.6914 8.90227L3.33165 10.1098L3.32715 10.1053L4.4679 8.66527C4.4679 8.66527 4.64715 8.47102 4.64715 8.24977C4.64715 8.03077 4.4679 7.83652 4.4679 7.83652L3.32715 6.39502L3.33165 6.38977L4.6914 7.59877C4.6914 7.59877 4.8759 7.79002 5.0844 7.79002V8.71177Z" fill="white"/>
<path fill-rule="evenodd" clip-rule="evenodd" d="M7.72625 17.8638C7.39325 17.8638 7.21925 17.5473 7.205 17.3665H7.16825C7.05275 17.6298 6.75575 17.9163 6.40025 17.9163C5.864 17.9163 5.45825 17.344 5.45825 16.4238C5.45825 15.0588 6.05975 13.7013 6.92975 13.7013C7.42175 13.7013 7.63925 14.0335 7.63925 14.2593C7.63925 14.2975 7.6325 14.3425 7.6325 14.3425C7.697 14.365 7.97975 14.3733 7.93625 14.5458C7.712 15.3903 7.5305 16.1748 7.5305 16.7703C7.5305 17.1175 7.58825 17.3508 7.835 17.3508L7.72625 17.8638Z" fill="white"/>
<path fill-rule="evenodd" clip-rule="evenodd" d="M7.83501 17.3511C8.13801 17.3511 8.26251 17.0339 8.32626 16.6754V16.6574C8.32626 15.7446 8.55126 14.8026 8.81226 13.9731C8.82651 13.9281 8.89851 13.9049 8.98551 13.9049C9.12351 13.9049 9.34101 14.0189 9.35526 14.2139C9.11601 15.0966 8.88426 16.0311 8.88426 16.9439C8.88426 17.1479 8.91351 17.3354 9.05076 17.3354C9.29001 17.3354 9.59451 16.5891 9.66651 16.2501C9.73176 15.9486 9.92076 13.8066 10.16 13.8066C10.3985 13.8066 10.631 13.9431 10.631 14.1089C10.631 14.8251 10.3115 15.6096 10.2178 16.2876C10.109 17.0496 9.88401 18.6929 9.88401 19.4399C9.88401 19.4849 9.85551 19.4999 9.81201 19.4999C9.70326 19.4999 9.47151 19.4016 9.35526 19.3341C9.29751 19.2966 9.28326 19.2666 9.28326 19.1459C9.28326 18.8594 9.47826 17.8566 9.52926 17.2686C9.43476 17.5019 9.26826 17.7426 9.01476 17.7426C8.68326 17.7426 8.50626 17.5334 8.41476 17.2709C8.27376 17.5851 8.04126 17.8641 7.72626 17.8641L7.83501 17.3511Z" fill="white"/>
<path fill-rule="evenodd" clip-rule="evenodd" d="M2.81499 18.0301C2.88024 17.4196 2.98149 16.5976 3.09774 15.8056C2.93124 15.7831 2.75724 15.7606 2.64099 15.7073C2.49624 15.6466 2.53299 15.4058 2.69949 15.3001C2.76474 15.3076 2.88024 15.3901 3.16299 15.3901C3.31524 14.3581 3.46749 13.4378 3.54699 13.1738C3.56874 13.0831 3.53274 12.9623 3.72774 12.9623C3.85824 12.9623 4.03974 13.0381 4.11174 13.1213C4.01799 13.4978 3.87999 14.4031 3.75699 15.3301C4.56849 15.1343 5.09724 14.5088 5.09724 13.6568C5.09724 13.0688 4.66224 12.7058 4.06149 12.7058C3.17724 12.7058 2.88024 13.1888 2.76474 13.5503C2.76474 13.5503 2.74974 13.5736 2.72124 13.5736C2.65599 13.5736 2.26449 13.3321 2.25024 13.2196C2.25024 13.2196 2.48199 12.2843 3.81474 12.2843C4.80774 12.2843 5.66274 12.8423 5.66274 13.8226C5.66274 14.8103 4.90149 15.6998 3.69174 15.8131L3.48849 17.3663C3.45999 17.5021 3.73524 17.3213 3.66999 17.5396C3.59724 17.7811 3.49599 17.9693 3.41649 18.1201C3.38724 18.1726 3.36549 18.2108 3.30024 18.2108C3.14799 18.2108 2.85099 18.0826 2.81499 18.0301Z" fill="white"/>
<path fill-rule="evenodd" clip-rule="evenodd" d="M16.4179 17.2632C16.2776 17.5804 16.0444 17.8639 15.7264 17.8639C15.3934 17.8639 15.2194 17.5474 15.2051 17.3659H15.1684C15.0529 17.6299 14.7551 17.9164 14.4011 17.9164C13.8649 17.9164 13.4591 17.3434 13.4591 16.4239C13.4591 15.0589 14.0599 13.7014 14.9299 13.7014C15.4226 13.7014 15.6394 14.0329 15.6394 14.2594C15.6394 14.2977 15.6319 14.3419 15.6319 14.3419C15.6971 14.3652 15.9799 14.3727 15.9364 14.5459C15.7121 15.3904 15.5306 16.1749 15.5306 16.7704C15.5306 17.1177 15.5891 17.3509 15.8351 17.3509C16.2124 17.3509 16.3129 16.8612 16.3646 16.4082C16.3646 16.4082 16.4126 16.4037 16.4629 16.4232L16.4179 17.2632Z" fill="white"/>
<path fill-rule="evenodd" clip-rule="evenodd" d="M16.4626 16.4231C16.5638 14.8608 16.8046 12.2906 17.0146 12.0431C17.1241 11.9223 17.5876 12.0731 17.5876 12.2838C17.5876 12.7211 17.4646 13.0233 17.3843 13.4306C17.2973 13.8903 17.0513 15.8501 17.0513 16.1898L17.1166 16.2048C17.2831 15.7151 17.8771 13.8596 18.2318 13.8596C18.4201 13.8596 18.7973 14.0186 18.7973 14.1843C18.7973 14.5683 18.4351 15.9183 18.4351 16.8911C18.4351 17.1926 18.5221 17.4341 18.7538 17.4341C18.9781 17.4341 19.1813 17.0036 19.2908 16.6121C19.2908 16.6121 19.5001 16.5896 19.5001 16.8528C19.5001 17.3583 19.0291 17.8713 18.5438 17.8713C17.9783 17.8713 17.7908 17.1251 17.7908 16.6196C17.7908 16.1291 17.9431 15.3303 18.0008 15.1263L17.9138 15.1113C17.7758 15.3078 17.1818 16.8986 17.1166 17.8788C17.1166 17.8788 17.0873 17.9463 16.9351 17.9463C16.6741 17.9463 16.4138 17.6373 16.4138 17.4791C16.4138 17.4228 16.4153 17.3493 16.4176 17.2631L16.4626 16.4231Z" fill="white"/>
<path fill-rule="evenodd" clip-rule="evenodd" d="M10.5277 17.6448C10.6432 17.6073 10.752 17.5691 10.8607 17.5391C11.0062 16.1748 11.3685 13.3023 11.6287 12.3446C11.7885 12.2238 12.1072 12.4271 12.216 12.5403C12.0127 13.4906 11.6002 15.8583 11.4405 17.3658C12.2302 17.1551 12.7882 17.1018 13.158 17.1251C13.2517 17.1318 13.578 17.6973 13.3605 17.6973C12.825 17.7131 12.252 17.7813 11.3895 17.9921C11.3827 18.0671 11.3827 18.1353 11.3827 18.2028C11.3752 18.3768 11.049 18.2253 10.89 18.1203C10.875 18.1203 10.8607 18.1203 10.854 18.1278C10.6657 18.1728 10.3972 17.6906 10.5277 17.6448Z" fill="white"/>
<path fill-rule="evenodd" clip-rule="evenodd" d="M6.06726 16.7549C6.06726 17.2229 6.14001 17.4036 6.32826 17.4036C6.75576 17.4036 7.14651 15.6014 7.14651 15.3306C7.14651 15.3306 6.91476 15.2849 6.81351 15.1641C6.96576 14.9459 7.06026 14.6811 7.06026 14.4104C7.06026 14.3421 7.06026 14.1614 6.92226 14.1614C6.39351 14.1614 6.06726 15.9629 6.06726 16.7549Z" fill="black"/>
<path fill-rule="evenodd" clip-rule="evenodd" d="M14.0668 16.7549C14.0668 15.9629 14.3931 14.1614 14.9218 14.1614C15.0591 14.1614 15.0591 14.3421 15.0591 14.4104C15.0591 14.6811 14.9653 14.9459 14.8131 15.1641C14.9151 15.2849 15.1461 15.3306 15.1461 15.3306C15.1461 15.6014 14.7553 17.4036 14.3278 17.4036C14.1396 17.4036 14.0668 17.2229 14.0668 16.7549Z" fill="black"/>
<path fill-rule="evenodd" clip-rule="evenodd" d="M21.3134 12.8328C21.3659 12.7376 21.4754 12.7196 21.5654 12.8058C21.7566 12.9753 21.8451 13.3158 21.6021 13.8896C21.2759 14.6598 20.7906 15.8741 20.5304 16.7193C20.5026 16.7958 20.4674 16.8161 20.3706 16.7741C20.1869 16.6893 20.0151 16.4793 20.0999 16.0323C20.2604 15.2321 20.8131 13.7103 21.3134 12.8328Z" fill="white"/>
<path fill-rule="evenodd" clip-rule="evenodd" d="M19.6245 17.3555C19.8277 17.141 20.1772 17.0915 20.3152 17.2467C20.4622 17.4125 20.4592 17.6705 20.2267 17.864C20.022 18.035 19.6815 18.0425 19.5765 17.9C19.4797 17.7665 19.4535 17.5302 19.6245 17.3555Z" fill="white"/>
</svg>
