<svg width="500" height="500" viewBox="0 0 500 500" fill="none" xmlns="http://www.w3.org/2000/svg">
<path d="M335.5 408.8H164.9C124.1 408.8 90.8003 375.6 90.8003 334.7V164.2C90.8003 123.4 124 90.1001 164.9 90.1001H335.5C376.3 90.1001 409.6 123.3 409.6 164.2V334.8C409.6 375.6 376.4 408.8 335.5 408.8Z" fill="#EFF2F4"/>
<path d="M307.1 148.8C307.3 147.4 307.4 145.9 307.5 144.5C307.9 126.4 293.9 111.4 276.4 111C266.2 110.8 257 115.6 251.1 123.3C245.5 115.4 236.5 110.3 226.3 110.1C208.8 109.8 194.3 124.2 194 142.3C193.9 146.9 194.7 151.2 196.3 155.2C200.4 167.2 212.6 187.8 249.7 205.4C299.4 184 306.2 155.8 307.1 148.8Z" fill="#FF2B85"/>
<path d="M397.8 265H102.1C91.3001 265 82.6001 256.3 82.6001 245.5C82.6001 234.7 91.3001 226 102.1 226H397.8C408.6 226 417.3 234.7 417.3 245.5C417.3 256.3 408.6 265 397.8 265Z" fill="#F7C6CC"/>
<path d="M372.1 252H127.9H107.3L140.5 368.5C143.3 378.3 150.8 384.9 159.1 384.9H179.7H192.1H192.5H212.7H213.1H239.5H239.8H260.1H260.4H286.8H287.2H307.4H307.8H320.2H340.8C349.2 384.9 356.6 378.3 359.4 368.5L392.7 252H372.1Z" fill="#F7C6CC"/>
<path d="M111.4 264.6H388.8L385.1 277.3H114.5L111.4 264.6Z" fill="#ED9FAC"/>
<path d="M192 358.2C186.5 358.2 181.5 354.4 180.3 348.7L169.9 300.7C168.5 294.2 172.6 287.8 179.1 286.4C185.6 285 192 289.1 193.4 295.6L203.8 343.6C205.2 350.1 201.1 356.5 194.6 357.9C193.7 358.1 192.8 358.2 192 358.2Z" fill="#EFF2F4"/>
<path d="M250.7 358.8C244.2 358.8 238.9 353.6 238.7 347.1L237.6 300C237.4 293.4 242.7 287.9 249.3 287.7C255.9 287.6 261.4 292.8 261.6 299.4L262.7 346.5C262.9 353.1 257.6 358.6 251 358.8C250.9 358.8 250.8 358.8 250.7 358.8Z" fill="#EFF2F4"/>
<path d="M309.5 359.4C308.8 359.4 308.1 359.3 307.4 359.2C300.9 358 296.5 351.8 297.7 345.3L305.9 299C307.1 292.5 313.3 288.1 319.8 289.3C326.3 290.5 330.7 296.7 329.5 303.2L321.3 349.5C320.3 355.3 315.2 359.4 309.5 359.4Z" fill="#EFF2F4"/>
<path d="M249.7 260.8C261.243 260.8 270.6 251.443 270.6 239.9C270.6 228.357 261.243 219 249.7 219C238.158 219 228.8 228.357 228.8 239.9C228.8 251.443 238.158 260.8 249.7 260.8Z" fill="#ED9FAC"/>
<path d="M399.8 298.6L259 258.3C251.4 256.1 247.1 248.2 249.2 240.7C251.4 233.1 259.3 228.8 266.8 230.9L407.6 271.2C415.2 273.4 419.5 281.2 417.4 288.8C415.3 296.4 407.4 300.7 399.8 298.6Z" fill="#ED9FAC"/>
</svg>
