<svg width="500" height="500" viewBox="0 0 500 500" fill="none" xmlns="http://www.w3.org/2000/svg">
<path d="M335.5 408.8H164.9C124.1 408.8 90.7998 375.6 90.7998 334.7V164.2C90.7998 123.4 124 90.1002 164.9 90.1002H335.5C376.3 90.1002 409.6 123.3 409.6 164.2V334.8C409.6 375.6 376.4 408.8 335.5 408.8Z" fill="#EFF2F4"/>
<path d="M221 405.5L245.1 444.2C247.5 448.1 253.1 448.1 255.6 444.4L283.2 402.9" fill="#EFF2F4"/>
<path d="M331.872 330.39C376.978 285.285 376.978 212.155 331.872 167.05C286.767 121.945 213.637 121.945 168.532 167.05C123.427 212.155 123.427 285.285 168.532 330.39C213.637 375.495 286.767 375.495 331.872 330.39Z" fill="#F7C6CC"/>
<path d="M250.199 350C306.146 350 351.499 304.647 351.499 248.7C351.499 192.754 306.146 147.4 250.199 147.4C194.253 147.4 148.899 192.754 148.899 248.7C148.899 304.647 194.253 350 250.199 350Z" fill="#FF2B85"/>
<path d="M250.2 262.8C266.935 262.8 280.5 249.234 280.5 232.5C280.5 215.766 266.935 202.2 250.2 202.2C233.466 202.2 219.9 215.766 219.9 232.5C219.9 249.234 233.466 262.8 250.2 262.8Z" fill="white"/>
<path d="M250.2 271.5C217 271.5 189.7 296.7 186.3 329C203.7 343.2 226 351.7 250.2 351.7C274.4 351.7 296.7 343.2 314.1 329C310.8 296.7 283.4 271.5 250.2 271.5Z" fill="white"/>
<path d="M292.8 322.5C292.8 299.2 311.7 280.3 335 280.3C358.3 280.3 377.2 299.2 377.2 322.5C377.2 345.8 358.3 364.7 335 364.7C311.7 364.7 292.8 345.8 292.8 322.5Z" fill="#231F20"/>
<path fill-rule="evenodd" clip-rule="evenodd" d="M310.573 322.3C310.573 319.91 312.51 317.974 314.899 317.974H354.2C356.589 317.974 358.526 319.91 358.526 322.3C358.526 324.689 356.589 326.626 354.2 326.626H314.899C312.51 326.626 310.573 324.689 310.573 322.3Z" fill="white"/>
<path fill-rule="evenodd" clip-rule="evenodd" d="M334.6 298.774C336.989 298.774 338.926 300.71 338.926 303.1V342.5C338.926 344.889 336.989 346.826 334.6 346.826C332.21 346.826 330.273 344.889 330.273 342.5V303.1C330.273 300.71 332.21 298.774 334.6 298.774Z" fill="white"/>
</svg>
