<svg width="500" height="500" viewBox="0 0 500 500" fill="none" xmlns="http://www.w3.org/2000/svg">
<path d="M335.5 408.8H164.9C124.1 408.8 90.7998 375.6 90.7998 334.7V164.2C90.7998 123.4 124 90.0996 164.9 90.0996H335.5C376.3 90.0996 409.6 123.3 409.6 164.2V334.8C409.6 375.6 376.4 408.8 335.5 408.8Z" fill="#EFF2F4"/>
<path d="M221 405.5L245.1 444.2C247.5 448.1 253.1 448.1 255.6 444.4L283.2 402.9" fill="#EFF2F4"/>
<path d="M332 372H168.2C150.7 372 136.5 357.8 136.5 340.3C136.5 322.8 150.7 308.6 168.2 308.6H332C349.5 308.6 363.7 322.8 363.7 340.3C363.7 357.8 349.5 372 332 372Z" fill="#FF2B85"/>
<path d="M191 334.4L183.6 337.9V330.4H178.6V337.9L171.2 334.9L169.3 339.5L177.4 342.7L172.2 348.8L176 352L181.3 345.7L186.6 352.1L190.4 348.9L185.2 342.6L193.1 338.9L191 334.4Z" fill="white"/>
<path d="M236.9 334.4L229.5 337.9V330.4H224.5V337.9L217.1 334.9L215.2 339.5L223.3 342.7L218.1 348.8L221.9 352L227.2 345.7L232.5 352.1L236.3 348.9L231.1 342.6L239 338.9L236.9 334.4Z" fill="white"/>
<path d="M282.8 334.4L275.4 337.9V330.4H270.4V337.9L263 334.9L261.1 339.5L269.2 342.7L264 348.8L267.8 352L273.1 345.7L278.4 352.1L282.2 348.9L277 342.6L284.9 338.9L282.8 334.4Z" fill="white"/>
<path d="M330.8 338.9L328.7 334.4L321.3 337.9V330.4H316.3V337.9L308.9 334.9L307.1 339.5L315.1 342.7L310 348.8L313.7 352L319.1 345.7L324.3 352.1L328.1 348.9L322.9 342.6L330.8 338.9Z" fill="white"/>
<path d="M351.3 269.4L152.3 270.6C147.7 270.6 144 267 144 262.4L143.3 147C143.3 142.4 146.9 138.7 151.5 138.7L350.5 137.5C355 137.5 358.8 141.1 358.8 145.7L359.5 261.2C359.5 265.7 355.8 269.4 351.3 269.4Z" fill="#FF2B85"/>
<path fill-rule="evenodd" clip-rule="evenodd" d="M350.485 132.5H350.5C357.637 132.5 363.79 138.212 363.8 145.683C363.8 145.689 363.8 145.694 363.8 145.7L364.5 261.185V261.2C364.5 268.456 358.57 274.391 351.316 274.4C351.311 274.4 351.305 274.4 351.3 274.4L152.315 275.6H152.3C145.023 275.6 139.009 269.849 139 262.417C139 262.411 139 262.406 139 262.4L138.3 147.015V147C138.3 139.724 144.051 133.709 151.483 133.7C151.489 133.7 151.494 133.7 151.5 133.7L350.485 132.5ZM350.512 142.5C350.508 142.5 350.504 142.5 350.5 142.5L151.515 143.7H151.5C149.744 143.7 148.306 145.076 148.3 146.988C148.3 146.992 148.3 146.996 148.3 147L149 262.385V262.4C149 264.156 150.376 265.594 152.288 265.6C152.292 265.6 152.296 265.6 152.3 265.6L351.285 264.4H351.3C353.035 264.4 354.493 262.945 354.5 261.212C354.5 261.208 354.5 261.204 354.5 261.2L353.8 145.715V145.7C353.8 143.983 352.364 142.506 350.512 142.5Z" fill="white"/>
<path fill-rule="evenodd" clip-rule="evenodd" d="M359.669 139.459C360.907 141.927 359.909 144.932 357.441 146.17L253.341 198.37C251.953 199.066 250.321 199.077 248.923 198.401L148.423 149.802C145.937 148.599 144.896 145.609 146.098 143.123C147.3 140.637 150.29 139.597 152.776 140.799L251.06 188.327L352.958 137.231C355.427 135.993 358.431 136.991 359.669 139.459Z" fill="white"/>
<path d="M329.8 232C330.7 233 330.6 234.6 329.6 235.5C325.3 239.1 319.8 240.7 313.9 240.8C300.9 240.9 292.1 232.3 292 220C291.9 208 301.5 198.8 313.4 198.6C323.7 198.5 333.5 204.4 333.7 216.6C333.8 225.7 328.5 230.5 322.6 230.6C319.6 230.6 317.6 229.1 317.6 226.9H317.3C316.2 228.7 313.8 230.7 310.4 230.8C305.2 230.9 302.3 227.2 302.3 221.7C302.2 215.3 306.6 208.8 313.3 208.7C316.2 208.7 318.3 210 318.9 211.8H319L319.4 209.5H321.5C323 209.5 324.1 210.8 323.8 212.3L322.3 220.2C322.1 221.3 321.8 222.6 321.8 223.8C321.8 225.1 322.2 226.1 323.6 226C326.6 226 328.7 222.5 328.6 217.2C328.5 208.1 322.1 203.2 313.3 203.3C303.7 203.4 297.3 210.7 297.4 220.1C297.5 230.1 304.4 236.3 314.2 236.2C319.4 236.1 323.2 234.6 326.5 231.9C327.5 231 328.9 231.1 329.8 232ZM307.9 221.7C307.9 223.5 308.6 226.1 311.6 226C315.7 225.9 317.2 221.3 317.2 218.2C317.2 215.8 316.3 213.2 313.4 213.3C309.8 213.4 307.9 218.1 307.9 221.7Z" fill="white"/>
</svg>
