<svg width="500" height="500" viewBox="0 0 500 500" fill="none" xmlns="http://www.w3.org/2000/svg">
<path d="M335.501 408.8H164.901C124.101 408.8 90.8008 375.6 90.8008 334.7V164.2C90.8008 123.4 124.001 90.1001 164.901 90.1001H335.501C376.301 90.1001 409.601 123.3 409.601 164.2V334.8C409.601 375.6 376.401 408.8 335.501 408.8Z" fill="#EFF2F4"/>
<path d="M315.801 373.3H189.501C159.301 373.3 134.701 349 134.701 319.2V194.5C134.701 164.7 159.301 140.4 189.501 140.4H315.801C346.001 140.4 370.601 164.7 370.601 194.5V319.2C370.601 349 346.001 373.3 315.801 373.3Z" fill="#D61E76"/>
<path d="M246.542 75.2032L120.951 124.735L208.053 345.588L333.644 296.056L246.542 75.2032Z" fill="#ED9FAC"/>
<path d="M255.86 65.4646L130.061 107.703L205.625 332.758L331.425 290.52L255.86 65.4646Z" fill="#F7C6CC"/>
<path d="M249.233 252.904C278.918 242.763 295.716 213.273 286.753 187.037C277.789 160.801 246.459 147.754 216.773 157.896C187.088 168.038 170.29 197.528 179.253 223.764C188.216 249.999 219.547 263.046 249.233 252.904Z" fill="#D36292"/>
<path d="M247.702 85.2999L313.202 280.3L214.002 313.6L148.502 118.6L247.702 85.2999ZM250.902 78.8999L142.102 115.4L210.802 320L319.502 283.5L250.902 78.8999Z" fill="white"/>
<path d="M258.101 102.1C258.101 102.1 240.201 104.3 231.801 85.9999L251.201 79.4999C251.201 79.4999 257.701 100.7 258.101 102.1Z" fill="white"/>
<path d="M295.283 90.3354L163.525 106.167L191.847 341.881L323.605 326.05L295.283 90.3354Z" fill="#ED9FAC"/>
<path d="M299.074 86.1315L167.316 101.963L195.638 337.677L327.396 321.846L299.074 86.1315Z" fill="#F7C6CC"/>
<path d="M254.455 268.313C285.58 264.404 308.011 238.935 304.557 211.427C301.102 183.918 273.07 164.787 241.945 168.696C210.82 172.604 188.388 198.073 191.843 225.581C195.297 253.09 223.33 272.221 254.455 268.313Z" fill="#D36292"/>
<path d="M287 103.9L311.5 308.1L207.6 320.6L183.1 116.4L287 103.9ZM291.4 98.2999L177.5 112L203.2 326.2L317.1 312.5L291.4 98.2999Z" fill="white"/>
<path d="M291.302 126.6C291.302 126.6 273.302 124.9 269.102 105.2L289.502 103.1C289.402 103.1 291.102 125.2 291.302 126.6Z" fill="white"/>
<path d="M185.102 137.8C185.102 137.8 202.202 132.1 201.902 111.9L181.602 114.4C181.602 114.4 184.902 136.4 185.102 137.8Z" fill="white"/>
<path d="M203.9 297.4C203.9 297.4 221.8 295.2 230.2 313.5L210.8 320C210.8 320 204.3 298.8 203.9 297.4Z" fill="#D36292"/>
<path d="M150.401 138.2C150.401 138.2 166.001 129.2 161.701 109.5L142.301 116C142.301 116 150.001 136.9 150.401 138.2Z" fill="white"/>
<path d="M311.601 261.3C311.601 261.3 296.001 270.3 300.301 290L319.701 283.5C319.701 283.5 312.001 262.6 311.601 261.3Z" fill="#D36292"/>
<path d="M325.201 371.8H182.201C155.401 371.8 133.701 350.1 133.701 323.3V158.4H325.201C352.001 158.4 373.701 180.1 373.701 206.9V323.4C373.701 350.1 352.001 371.8 325.201 371.8Z" fill="#EFF2F4"/>
<path d="M320.901 372.1H180.901C154.901 372.1 133.801 351 133.801 325V165.7H320.901C346.901 165.7 368.001 186.8 368.001 212.8V325C368.001 351 346.901 372.1 320.901 372.1Z" fill="#FF2B85"/>
<path d="M372.7 289C372.7 292.5 369.9 295.3 366.4 295.3H286C269.4 295.3 256 282.1 256 265.8C256 249.5 269.4 236.3 286 236.3H366.4C369.9 236.3 372.7 239.1 372.7 242.6V289Z" fill="#FFD271"/>
<path d="M288.001 278.5C296.119 278.5 302.701 271.919 302.701 263.8C302.701 255.681 296.119 249.1 288.001 249.1C279.882 249.1 273.301 255.681 273.301 263.8C273.301 271.919 279.882 278.5 288.001 278.5Z" fill="white"/>
</svg>
