<svg width="24" height="24" viewBox="0 0 24 24" fill="none" xmlns="http://www.w3.org/2000/svg">
<path d="M12.3791 6.50186C13.2549 6.50186 14.3528 5.89156 15.0066 5.07783C15.5987 4.34038 16.0304 3.31051 16.0304 2.28063C16.0304 2.14077 16.0181 2.00091 15.9934 1.88647C15.0189 1.92462 13.847 2.56035 13.1439 3.41222C12.5888 4.06066 12.0831 5.07783 12.0831 6.12042C12.0831 6.273 12.1077 6.42557 12.1201 6.47643C12.1817 6.48914 12.2804 6.50186 12.3791 6.50186ZM9.29523 21.8865C10.4918 21.8865 11.0222 21.06 12.5148 21.06C14.0321 21.06 14.3651 21.861 15.6974 21.861C17.0049 21.861 17.8808 20.615 18.7072 19.3944C19.6324 17.9958 20.0148 16.6226 20.0395 16.5591C19.9531 16.5336 17.449 15.4783 17.449 12.5158C17.449 9.9475 19.4227 8.79048 19.5337 8.70148C18.2262 6.76886 16.2401 6.71801 15.6974 6.71801C14.2294 6.71801 13.0329 7.63345 12.2804 7.63345C11.4663 7.63345 10.3931 6.76887 9.12253 6.76887C6.70477 6.76887 4.25 8.82862 4.25 12.7193C4.25 15.135 5.16283 17.6907 6.28536 19.3436C7.24753 20.7422 8.08635 21.8865 9.29523 21.8865Z" fill="white"/>
</svg>
